<?xml version="1.0" encoding="UTF-8" standalone="no"?>
<svg
   xmlns:dc="http://purl.org/dc/elements/1.1/"
   xmlns:cc="http://creativecommons.org/ns#"
   xmlns:rdf="http://www.w3.org/1999/02/22-rdf-syntax-ns#"
   xmlns:svg="http://www.w3.org/2000/svg"
   xmlns="http://www.w3.org/2000/svg"
   xmlns:sodipodi="http://sodipodi.sourceforge.net/DTD/sodipodi-0.dtd"
   xmlns:inkscape="http://www.inkscape.org/namespaces/inkscape"
   viewBox="0 0 15.875794 11.334438"
   x="0px"
   y="0px"
   version="1.1"
   id="svg8"
   sodipodi:docname="noun_counting_154887.white.svg"
   width="15.875794"
   height="11.334438"
   inkscape:version="0.92.4 (5da689c313, 2019-01-14)">
  <metadata
     id="metadata14">
    <rdf:RDF>
      <cc:Work
         rdf:about="">
        <dc:format>image/svg+xml</dc:format>
        <dc:type
           rdf:resource="http://purl.org/dc/dcmitype/StillImage" />
        <dc:title />
      </cc:Work>
    </rdf:RDF>
  </metadata>
  <defs
     id="defs12" />
  <sodipodi:namedview
     pagecolor="#ffffff"
     bordercolor="#666666"
     borderopacity="1"
     objecttolerance="10"
     gridtolerance="10"
     guidetolerance="10"
     inkscape:pageopacity="0"
     inkscape:pageshadow="2"
     inkscape:window-width="1920"
     inkscape:window-height="1017"
     id="namedview10"
     showgrid="false"
     scale-x="1"
     fit-margin-top="0"
     fit-margin-left="0"
     fit-margin-right="0"
     fit-margin-bottom="0"
     inkscape:zoom="23.58618"
     inkscape:cx="2.964228"
     inkscape:cy="0.69364765"
     inkscape:window-x="-8"
     inkscape:window-y="-8"
     inkscape:window-maximized="1"
     inkscape:current-layer="svg8" />
  <path
     d="M 2.6267591,5.5893424e-4 C 2.5623666,0.00497098 2.5050309,0.02666783 2.4558101,0.06671543 2.2553996,0.22972558 2.2924472,0.67817946 2.2848615,0.90470004 2.3323178,3.4615222 2.3395505,3.903802 2.3234966,4.747255 1.9221463,4.7723072 1.772544,4.7811276 1.2544051,4.8134117 0.93755899,4.8455186 0.30862961,4.8548701 0.08563758,5.0835075 -0.20633382,5.3828884 0.32856483,5.9885305 0.49369183,6.235868 0.81230237,6.7127251 1.1452026,6.9027276 2.2853904,6.8928481 2.2753366,7.4621485 2.2642223,7.8594405 2.2522225,8.7992182 2.2455204,10.353283 2.6957365,12.087115 3.2777385,10.987857 3.657037,9.8850694 3.9080794,8.409512 4.0661496,6.7824107 4.3965801,6.751716 4.7499449,6.7148427 5.1521777,6.6721494 5.2428563,6.6626213 5.3365341,6.6490408 5.4279186,6.6389837 5.4169797,7.2386274 5.4026901,7.7384195 5.3892827,8.7990422 5.3825828,10.353106 5.8327972,12.086941 6.4147993,10.987682 6.8214423,9.805506 7.0747778,8.2059263 7.2307313,6.4505695 7.6779504,6.3948216 8.1239342,6.3362508 8.5704474,6.2741518 8.558807,6.9067861 8.5420391,7.5547683 8.5263422,8.7990422 8.5196335,10.353106 8.9642103,12.086941 9.5462119,10.987682 9.9877853,9.7038886 10.253648,7.9137783 10.406248,5.9985874 c 0.445632,-0.073037 0.880325,-0.1515429 1.306551,-0.2316369 -0.01307,0.6596262 -0.03,1.4842025 -0.04957,3.0326216 -0.0067,1.5540629 0.437868,3.2878979 1.019871,2.1886389 0.489559,-1.4236919 0.757185,-3.4378534 0.898672,-5.5626286 0.666858,-0.1589524 1.282733,-0.2875611 1.819397,-0.4687421 1.206696,-0.5791794 -0.07551,-1.0562132 -1.742126,-1.0690914 0.0033,-0.078506 0.0079,-0.1593055 0.01112,-0.2371055 0.101616,-2.5919301 -0.02259,-2.97087544 -0.766359,-3.3133022 -0.199881,-0.0919134 -0.586765,-0.35636359 -0.865506,-0.33625206 -0.0644,0.00441204 -0.121727,0.02610892 -0.170948,0.0661565 -0.200411,0.16300978 -0.168832,0.61146368 -0.176419,0.83798421 0.03458,1.86103125 0.04481,2.51271825 0.04411,3.08184185 C 11.209669,4.0325877 10.938869,4.0546397 10.5167,4.0918641 10.5234,3.9450845 10.53311,3.7956589 10.53875,3.6508195 10.640359,1.0588879 10.510692,0.67994246 9.766915,0.33751575 9.5670344,0.24560198 9.1801499,-0.01884821 8.90141,0.00126331 8.8370174,0.00567537 8.7796813,0.02737222 8.7304613,0.06742018 8.53005,0.23042996 8.5616286,0.67888388 8.5540426,0.90540439 8.5935606,3.0382948 8.6036096,3.6301767 8.5981486,4.2626344 8.0974766,4.3079735 7.7026529,4.3421987 7.3686943,4.3728957 7.3808682,4.1308503 7.3925123,3.8877468 7.4018603,3.6506413 7.5034764,1.0587113 7.3738085,0.67976595 6.6300312,0.3373392 6.4301503,0.24542579 6.0432661,-0.0190244 5.7645259,0.00108712 5.7001335,0.00549918 5.6427977,0.02719602 5.593577,0.06724364 5.3931664,0.23025341 5.4302144,0.6787073 5.4226284,0.90522787 5.4669094,3.2933949 5.4789055,3.8043011 5.4667327,4.5438445 5.1528856,4.5673069 4.6943761,4.595711 4.2212234,4.6265845 4.2392168,4.2980946 4.2528016,3.9711926 4.2653279,3.6508174 4.3667682,1.0643567 4.2386867,0.67923701 3.4989693,0.33751575 h -0.00547 C 3.2925621,0.24419175 2.9051487,-0.01708304 2.6279964,0.00126441"
     id="path2"
     inkscape:connector-curvature="0"
     style="stroke-width:0.17641777;fill:#ffffff;fill-opacity:1" />
</svg>
